<svg id="svg" version="1.1" xmlns="http://www.w3.org/2000/svg" xmlns:xlink="http://www.w3.org/1999/xlink" width="400" height="400" viewBox="0, 0, 400,400"><g id="svgg"><path id="path0" d="M348.617 15.817 C 347.931 16.336,337.662 16.396,265.355 16.305 C 219.992 16.247,182.957 16.330,183.055 16.488 C 183.304 16.891,181.351 17.333,180.408 17.086 C 179.980 16.974,179.409 17.148,179.139 17.473 C 178.868 17.800,178.244 17.987,177.744 17.891 C 177.219 17.791,176.753 17.945,176.633 18.259 C 176.518 18.557,176.181 18.800,175.883 18.800 C 175.289 18.800,171.206 20.807,169.564 21.906 C 168.994 22.288,167.824 23.077,166.964 23.660 C 165.137 24.899,161.333 28.788,159.980 30.800 C 159.462 31.570,158.940 32.290,158.819 32.400 C 158.699 32.510,158.358 33.030,158.062 33.555 C 157.767 34.080,157.182 35.120,156.762 35.867 C 156.343 36.614,156.000 37.489,156.000 37.812 C 156.000 38.135,155.801 38.400,155.557 38.400 C 155.314 38.400,155.216 38.665,155.340 38.988 C 155.464 39.312,155.314 39.829,155.007 40.136 C 154.699 40.444,154.539 41.046,154.652 41.476 C 154.765 41.908,154.584 42.482,154.245 42.763 C 153.842 43.097,153.710 43.651,153.857 44.386 C 153.980 45.000,153.872 45.892,153.617 46.368 C 152.988 47.543,153.014 138.270,153.645 141.800 C 154.200 144.909,154.787 147.225,155.239 148.095 C 155.438 148.477,155.600 148.983,155.600 149.220 C 155.600 149.841,158.100 154.975,158.480 155.133 C 158.656 155.207,158.800 155.522,158.800 155.833 C 158.800 156.145,158.980 156.400,159.200 156.400 C 159.420 156.400,159.600 156.579,159.600 156.797 C 159.600 159.422,171.302 168.494,176.845 170.166 C 182.532 171.881,184.016 172.046,196.400 172.334 L 207.800 172.600 207.829 194.299 L 207.859 215.998 208.769 216.967 C 212.106 220.519,211.438 221.028,237.411 195.134 L 260.223 172.393 303.811 172.582 C 327.785 172.686,350.960 172.875,355.312 173.002 C 361.848 173.193,363.323 173.134,363.794 172.664 C 364.195 172.262,364.918 172.157,366.241 172.306 C 367.721 172.473,368.051 172.407,367.797 171.996 C 367.559 171.610,367.695 171.532,368.323 171.696 C 368.807 171.822,369.370 171.678,369.634 171.359 C 370.161 170.724,370.977 170.590,370.600 171.200 C 370.464 171.420,370.542 171.600,370.773 171.600 C 371.004 171.600,371.418 171.240,371.693 170.800 C 371.968 170.360,372.509 170.000,372.896 170.000 C 373.283 170.000,373.600 169.801,373.600 169.557 C 373.600 169.314,373.877 169.221,374.215 169.350 C 374.565 169.485,374.928 169.331,375.058 168.993 C 375.183 168.667,375.626 168.400,376.043 168.400 C 376.459 168.400,376.800 168.220,376.800 168.000 C 376.800 167.780,377.070 167.600,377.400 167.600 C 377.730 167.600,378.000 167.420,378.000 167.200 C 378.000 166.980,378.230 166.800,378.512 166.800 C 378.793 166.800,379.283 166.440,379.600 166.000 C 379.917 165.560,380.425 165.200,380.728 165.200 C 381.031 165.200,381.786 164.658,382.405 163.995 C 383.103 163.248,383.592 162.977,383.694 163.281 C 383.784 163.551,384.113 163.193,384.426 162.486 C 384.739 161.779,385.131 161.200,385.298 161.200 C 385.464 161.200,385.600 160.957,385.600 160.659 C 385.600 160.362,386.140 159.554,386.800 158.863 C 387.460 158.172,388.000 157.415,388.000 157.180 C 388.000 156.945,388.160 156.851,388.355 156.972 C 388.550 157.093,388.685 156.878,388.655 156.496 C 388.625 156.113,388.814 155.841,389.075 155.892 C 389.351 155.945,389.487 155.652,389.399 155.193 C 389.303 154.697,389.555 154.238,390.077 153.959 C 390.743 153.602,390.798 153.444,390.354 153.163 C 389.955 152.910,389.940 152.811,390.300 152.806 C 390.575 152.803,390.800 152.440,390.800 152.000 C 390.800 151.560,390.980 151.200,391.200 151.200 C 391.420 151.200,391.600 150.660,391.600 150.000 C 391.600 149.340,391.780 148.800,392.000 148.800 C 392.220 148.800,392.400 148.260,392.400 147.600 C 392.400 146.940,392.580 146.400,392.800 146.400 C 393.020 146.400,393.200 145.489,393.200 144.376 C 393.200 143.129,393.353 142.448,393.600 142.600 C 393.866 142.764,394.000 126.604,394.000 94.424 C 394.000 62.408,393.864 46.000,393.600 46.000 C 393.380 46.000,393.200 45.190,393.200 44.200 C 393.200 43.210,393.020 42.400,392.800 42.400 C 392.580 42.400,392.400 41.770,392.400 41.000 C 392.400 40.230,392.220 39.600,392.000 39.600 C 391.780 39.600,391.600 39.150,391.600 38.600 C 391.600 38.050,391.399 37.600,391.153 37.600 C 390.904 37.600,390.799 37.247,390.916 36.800 C 391.031 36.360,390.958 36.000,390.753 36.000 C 390.300 36.000,389.436 34.011,389.563 33.260 C 389.613 32.963,389.461 32.838,389.227 32.983 C 388.977 33.138,388.800 32.905,388.800 32.424 C 388.800 31.971,388.542 31.600,388.227 31.600 C 387.691 31.600,387.264 30.778,387.004 29.251 C 386.943 28.893,386.688 28.646,386.437 28.703 C 385.754 28.858,383.114 26.063,383.442 25.532 C 383.616 25.250,383.545 25.186,383.256 25.365 C 382.980 25.536,382.151 24.990,381.226 24.027 C 380.366 23.132,379.418 22.400,379.120 22.400 C 378.821 22.400,378.317 22.040,378.000 21.600 C 377.683 21.160,377.103 20.800,376.712 20.800 C 376.320 20.800,376.000 20.620,376.000 20.400 C 376.000 20.180,375.640 20.000,375.200 20.000 C 374.760 20.000,374.400 19.820,374.400 19.600 C 374.400 19.380,374.040 19.200,373.600 19.200 C 373.160 19.200,372.800 19.020,372.800 18.800 C 372.800 18.580,372.451 18.400,372.024 18.400 C 371.597 18.400,371.136 18.220,371.000 18.000 C 370.864 17.780,370.313 17.600,369.776 17.600 C 369.239 17.600,368.800 17.420,368.800 17.200 C 368.800 16.980,368.530 16.800,368.200 16.800 C 367.870 16.800,367.600 16.620,367.600 16.400 C 367.600 16.180,367.409 16.000,367.176 16.000 C 366.943 16.000,366.864 16.180,367.000 16.400 C 367.136 16.620,366.877 16.800,366.424 16.800 C 365.971 16.800,365.600 16.620,365.600 16.400 C 365.600 16.180,365.186 16.000,364.680 16.000 C 364.174 16.000,363.518 15.775,363.221 15.500 C 362.790 15.100,362.739 15.100,362.965 15.500 C 363.316 16.121,359.383 16.220,359.000 15.600 C 358.584 14.927,349.544 15.117,348.617 15.817 M303.600 53.207 C 306.026 54.680,306.783 55.335,307.760 56.811 C 308.332 57.676,308.800 58.736,308.800 59.168 C 308.800 59.600,308.980 60.064,309.200 60.200 C 309.694 60.506,309.728 63.759,309.247 64.705 C 309.052 65.087,308.647 65.939,308.347 66.597 C 307.470 68.518,305.944 70.018,303.825 71.044 L 301.850 72.000 252.574 72.000 C 199.520 72.000,202.162 72.101,199.446 69.965 C 193.133 64.999,195.769 54.031,203.600 52.673 C 206.819 52.115,302.644 52.627,303.600 53.207 M345.095 85.307 C 352.642 89.432,352.932 99.285,345.615 102.992 L 343.627 104.000 273.462 104.000 C 212.043 104.000,203.119 103.925,201.864 103.401 C 193.048 99.717,194.252 86.809,203.600 84.787 C 207.001 84.051,343.716 84.554,345.095 85.307 M345.600 117.648 C 352.970 121.941,352.535 132.045,344.829 135.550 C 342.831 136.459,204.811 136.557,202.248 135.652 C 192.946 132.366,194.257 118.242,204.000 116.770 C 204.990 116.620,236.850 116.521,274.800 116.549 L 343.800 116.600 345.600 117.648 " stroke="none" fill="#2be2a9" fill-rule="evenodd"></path><path id="path1" d="M231.200 201.434 C 212.038 220.405,212.015 220.421,208.740 216.936 L 207.800 215.936 207.600 200.668 L 207.400 185.400 165.400 185.272 C 120.073 185.133,120.005 185.135,113.463 187.255 C 97.059 192.569,85.645 206.022,82.437 223.824 C 81.831 227.185,81.831 292.415,82.437 295.776 C 85.674 313.740,99.379 329.434,114.800 332.835 C 115.570 333.005,117.550 333.472,119.200 333.872 C 123.139 334.828,270.913 335.021,275.600 334.076 C 295.905 329.984,310.445 315.026,313.171 295.426 C 313.758 291.208,313.758 228.392,313.171 224.174 C 310.781 206.992,298.670 192.609,282.062 187.230 C 276.744 185.508,273.270 185.170,260.000 185.081 L 247.800 185.000 231.200 201.434 M154.120 238.702 C 155.027 239.311,156.316 240.588,156.984 241.539 L 158.200 243.269 158.200 259.800 L 158.200 276.331 156.984 278.061 C 152.566 284.348,143.511 283.505,140.599 276.536 C 139.723 274.439,139.711 245.190,140.585 243.097 C 142.819 237.750,149.481 235.587,154.120 238.702 M250.679 238.199 C 252.228 238.972,254.310 241.286,255.050 243.058 C 255.853 244.979,255.853 274.621,255.050 276.542 C 252.137 283.513,242.888 284.328,238.609 277.991 L 237.400 276.200 237.400 259.800 L 237.400 243.400 238.600 241.637 C 241.366 237.572,246.496 236.113,250.679 238.199 M6.186 259.800 C 6.186 270.800,6.237 275.242,6.300 269.672 C 6.363 264.102,6.362 255.102,6.300 249.672 C 6.237 244.242,6.185 248.800,6.186 259.800 M393.786 259.800 C 393.786 270.800,393.837 275.242,393.900 269.672 C 393.963 264.102,393.962 255.102,393.900 249.672 C 393.837 244.242,393.785 248.800,393.786 259.800 " stroke="none" fill="#7f8789" fill-rule="evenodd"></path><path id="path2" d="M201.999 53.732 C 194.771 57.108,194.427 66.774,201.400 70.537 L 203.000 71.400 252.631 71.400 L 302.263 71.400 304.219 70.191 C 310.692 66.189,310.130 56.638,303.253 53.764 C 301.437 53.005,203.622 52.975,201.999 53.732 M201.800 85.952 C 194.797 89.164,194.564 98.852,201.397 102.719 C 202.831 103.531,340.618 104.003,343.576 103.206 C 351.968 100.947,352.617 89.175,344.536 85.799 C 342.087 84.776,204.042 84.923,201.800 85.952 M90.400 94.229 C 90.400 94.653,91.636 95.697,91.867 95.467 C 91.992 95.341,91.817 94.960,91.476 94.619 C 90.841 93.984,90.400 93.824,90.400 94.229 M92.779 96.978 C 93.307 97.540,93.800 98.000,93.873 98.000 C 94.234 98.000,92.939 96.385,92.418 96.186 C 92.088 96.059,92.251 96.416,92.779 96.978 M101.200 102.400 C 101.200 102.620,101.380 102.800,101.600 102.800 C 101.860 102.800,102.000 108.533,102.000 119.200 L 102.000 135.600 100.624 135.600 C 99.867 135.600,99.136 135.780,99.000 136.000 C 98.864 136.220,97.943 136.400,96.953 136.400 C 95.855 136.400,95.249 136.556,95.400 136.800 C 95.551 137.044,94.937 137.200,93.824 137.200 C 92.821 137.200,92.000 137.380,92.000 137.600 C 92.000 137.820,91.460 138.000,90.800 138.000 C 90.140 138.000,89.600 138.180,89.600 138.400 C 89.600 138.620,89.060 138.800,88.400 138.800 C 87.740 138.800,87.200 138.980,87.200 139.200 C 87.200 139.420,86.649 139.600,85.976 139.600 C 85.263 139.600,84.856 139.767,85.000 140.000 C 85.140 140.227,84.804 140.400,84.224 140.400 C 83.661 140.400,83.200 140.580,83.200 140.800 C 83.200 141.020,82.910 141.200,82.556 141.200 C 81.812 141.200,75.866 144.046,75.667 144.498 C 75.593 144.664,75.188 144.800,74.767 144.800 C 74.345 144.800,74.000 144.950,74.000 145.132 C 74.000 145.315,73.505 145.720,72.900 146.032 C 72.295 146.345,71.451 146.915,71.025 147.300 C 70.598 147.685,70.053 148.000,69.813 148.000 C 69.573 148.000,69.117 148.360,68.800 148.800 C 68.483 149.240,67.996 149.600,67.718 149.600 C 67.440 149.600,66.302 150.455,65.190 151.500 C 60.075 156.304,56.800 159.544,56.800 159.800 C 56.800 159.953,56.260 160.583,55.600 161.200 C 54.940 161.817,54.400 162.529,54.400 162.784 C 54.400 163.039,54.192 163.119,53.938 162.962 C 53.668 162.795,53.584 162.851,53.736 163.096 C 53.879 163.328,53.371 164.210,52.607 165.058 C 51.843 165.906,51.214 166.743,51.209 166.917 C 51.204 167.091,50.840 167.620,50.400 168.092 C 49.960 168.564,49.600 169.187,49.600 169.475 C 49.600 169.764,49.420 170.000,49.200 170.000 C 48.980 170.000,48.800 170.278,48.800 170.617 C 48.800 170.956,48.440 171.620,48.000 172.092 C 47.560 172.564,47.200 173.288,47.200 173.699 C 47.200 174.111,47.020 174.336,46.800 174.200 C 46.573 174.060,46.400 174.396,46.400 174.976 C 46.400 175.539,46.220 176.000,46.000 176.000 C 45.780 176.000,45.600 176.360,45.600 176.800 C 45.600 177.240,45.420 177.600,45.200 177.600 C 44.980 177.600,44.800 177.960,44.800 178.400 C 44.800 178.840,44.620 179.200,44.400 179.200 C 44.180 179.200,44.000 179.549,44.000 179.976 C 44.000 180.403,43.820 180.864,43.600 181.000 C 43.380 181.136,43.200 181.657,43.200 182.157 C 43.200 182.657,43.065 183.202,42.900 183.366 C 42.505 183.762,41.579 187.360,41.323 189.500 C 41.211 190.435,40.958 191.200,40.760 191.200 C 40.562 191.200,40.400 191.909,40.400 192.776 C 40.400 193.643,40.220 194.464,40.000 194.600 C 39.780 194.736,39.600 195.447,39.600 196.181 C 39.600 197.584,39.095 198.000,37.391 198.000 C 36.872 198.000,36.336 198.180,36.200 198.400 C 36.064 198.620,35.513 198.800,34.976 198.800 C 34.439 198.800,34.000 198.980,34.000 199.200 C 34.000 199.420,33.475 199.600,32.833 199.600 C 32.192 199.600,31.607 199.735,31.533 199.900 C 31.338 200.340,28.022 202.000,27.339 202.000 C 27.016 202.000,26.864 202.180,27.000 202.400 C 27.136 202.620,26.916 202.800,26.512 202.800 C 26.107 202.800,25.517 203.160,25.200 203.600 C 24.883 204.040,24.420 204.400,24.171 204.400 C 23.922 204.400,23.154 204.940,22.463 205.600 C 21.772 206.260,21.071 206.800,20.904 206.800 C 20.458 206.801,16.800 210.430,16.800 210.871 C 16.800 211.078,16.620 211.136,16.400 211.000 C 16.180 210.864,16.000 210.996,16.000 211.294 C 16.000 211.592,15.280 212.517,14.400 213.351 C 13.520 214.185,12.800 215.107,12.800 215.400 C 12.800 215.694,12.665 215.993,12.500 216.067 C 12.335 216.140,11.786 217.010,11.279 218.000 C 10.773 218.990,10.053 220.346,9.679 221.014 C 8.945 222.326,8.780 222.812,8.495 224.500 C 8.393 225.105,8.150 225.600,7.955 225.600 C 7.760 225.600,7.600 226.039,7.600 226.576 C 7.600 227.113,7.420 227.664,7.200 227.800 C 6.980 227.936,6.800 228.817,6.800 229.757 C 6.800 230.697,6.686 231.581,6.546 231.721 C 6.184 232.083,6.138 288.400,6.500 288.400 C 6.665 288.400,6.800 289.120,6.800 290.000 C 6.800 290.880,6.980 291.600,7.200 291.600 C 7.420 291.600,7.600 292.125,7.600 292.767 C 7.600 293.408,7.769 293.993,7.975 294.067 C 8.182 294.140,8.437 294.740,8.543 295.400 C 8.648 296.060,8.772 296.645,8.817 296.700 C 8.863 296.755,8.934 296.935,8.976 297.100 C 9.241 298.146,11.360 302.000,11.670 302.000 C 11.878 302.000,11.949 302.160,11.828 302.355 C 11.707 302.550,11.877 302.932,12.204 303.204 C 12.532 303.476,12.800 303.901,12.800 304.149 C 12.801 304.397,13.251 305.123,13.800 305.762 C 14.350 306.401,14.800 306.781,14.800 306.606 C 14.800 306.431,15.267 306.976,15.837 307.816 C 16.910 309.398,19.556 311.974,20.124 311.991 C 20.302 311.996,20.319 312.208,20.162 312.462 C 19.990 312.739,20.052 312.815,20.315 312.652 C 20.557 312.503,21.389 313.015,22.164 313.791 C 22.939 314.566,23.767 315.200,24.003 315.200 C 24.240 315.200,24.820 315.560,25.292 316.000 C 25.764 316.440,26.398 316.800,26.699 316.800 C 27.001 316.800,27.136 316.980,27.000 317.200 C 26.864 317.420,27.016 317.600,27.339 317.600 C 27.876 317.600,31.133 319.131,31.600 319.602 C 31.934 319.940,34.612 320.800,35.328 320.800 C 35.698 320.800,36.000 320.980,36.000 321.200 C 36.000 321.420,36.630 321.600,37.400 321.600 C 38.170 321.600,38.800 321.791,38.800 322.024 C 38.800 322.257,38.980 322.336,39.200 322.200 C 39.438 322.053,39.600 322.521,39.600 323.353 C 39.600 324.123,39.780 324.864,40.000 325.000 C 40.220 325.136,40.400 325.957,40.400 326.824 C 40.400 327.691,40.562 328.400,40.760 328.400 C 40.958 328.400,41.211 329.165,41.323 330.100 C 41.579 332.240,42.505 335.838,42.900 336.234 C 43.065 336.398,43.200 336.846,43.200 337.229 C 43.200 337.829,43.704 339.026,45.250 342.095 C 45.443 342.477,45.600 342.984,45.600 343.223 C 45.600 343.462,45.872 343.929,46.204 344.261 C 46.536 344.593,46.705 345.030,46.580 345.232 C 46.455 345.435,46.543 345.600,46.776 345.600 C 47.009 345.600,47.200 345.870,47.200 346.200 C 47.200 346.530,47.380 346.800,47.600 346.800 C 47.820 346.800,48.000 347.055,48.000 347.367 C 48.000 347.678,48.135 347.993,48.300 348.067 C 48.676 348.234,49.975 350.364,50.271 351.300 C 50.393 351.685,50.652 352.000,50.847 352.000 C 51.041 352.000,51.200 352.225,51.200 352.500 C 51.201 352.775,51.666 353.540,52.235 354.200 C 52.804 354.860,53.563 355.895,53.921 356.501 C 54.280 357.106,54.894 357.703,55.287 357.827 C 55.679 357.952,56.000 358.233,56.000 358.452 C 56.000 358.672,56.443 359.335,56.984 359.926 C 57.525 360.516,58.583 361.667,59.334 362.483 C 60.086 363.299,60.603 364.064,60.484 364.183 C 60.364 364.302,60.577 364.400,60.957 364.400 C 61.337 364.400,61.565 364.535,61.464 364.700 C 61.364 364.865,62.118 365.629,63.141 366.398 C 64.163 367.168,65.495 368.312,66.100 368.941 C 66.705 369.570,67.200 369.954,67.200 369.794 C 67.200 369.634,67.995 370.155,68.967 370.952 C 69.939 371.748,70.852 372.400,70.996 372.400 C 71.140 372.400,71.529 372.672,71.861 373.004 C 72.193 373.336,72.630 373.505,72.832 373.380 C 73.035 373.255,73.200 373.326,73.200 373.537 C 73.200 373.748,73.995 374.250,74.967 374.652 C 75.939 375.054,76.667 375.491,76.585 375.624 C 76.503 375.756,77.058 376.109,77.818 376.407 C 78.578 376.705,79.200 377.096,79.200 377.275 C 79.200 377.454,79.549 377.600,79.976 377.600 C 80.403 377.600,80.864 377.780,81.000 378.000 C 81.136 378.220,81.687 378.400,82.224 378.400 C 82.761 378.400,83.200 378.580,83.200 378.800 C 83.200 379.020,83.560 379.200,84.000 379.200 C 84.440 379.200,84.800 379.380,84.800 379.600 C 84.800 379.820,85.340 380.000,86.000 380.000 C 86.660 380.000,87.200 380.180,87.200 380.400 C 87.200 380.620,87.740 380.800,88.400 380.800 C 89.060 380.800,89.600 380.980,89.600 381.200 C 89.600 381.420,90.140 381.600,90.800 381.600 C 91.460 381.600,92.000 381.780,92.000 382.000 C 92.000 382.220,92.720 382.400,93.600 382.400 C 94.480 382.400,95.200 382.580,95.200 382.800 C 95.200 383.020,96.111 383.200,97.224 383.200 C 98.471 383.200,99.152 383.353,99.000 383.600 C 98.844 383.852,99.796 384.000,101.576 384.000 C 103.200 384.000,104.400 384.171,104.400 384.402 C 104.400 384.669,135.474 384.802,197.600 384.798 C 253.516 384.795,290.800 384.647,290.800 384.428 C 290.800 384.227,292.105 383.970,293.700 383.857 C 297.695 383.573,300.129 383.185,300.580 382.759 C 300.789 382.562,301.543 382.400,302.256 382.400 C 302.969 382.400,303.664 382.220,303.800 382.000 C 303.936 381.780,304.587 381.600,305.247 381.600 C 305.945 381.600,306.344 381.433,306.200 381.200 C 305.992 380.863,307.428 380.583,308.500 380.753 C 308.665 380.779,308.800 380.620,308.800 380.400 C 308.800 380.180,309.160 380.000,309.600 380.000 C 310.040 380.000,310.400 379.820,310.400 379.600 C 310.400 379.380,310.839 379.200,311.376 379.200 C 311.913 379.200,312.464 379.020,312.600 378.800 C 312.736 378.580,313.197 378.400,313.624 378.400 C 314.051 378.400,314.400 378.220,314.400 378.000 C 314.400 377.780,314.760 377.600,315.200 377.600 C 315.640 377.600,316.000 377.420,316.000 377.200 C 316.000 376.980,316.360 376.800,316.800 376.800 C 317.240 376.800,317.600 376.664,317.600 376.498 C 317.600 376.331,318.185 375.960,318.900 375.672 C 319.615 375.384,320.470 374.985,320.800 374.785 C 321.130 374.586,321.940 374.147,322.600 373.812 C 323.260 373.476,324.323 372.751,324.962 372.201 C 325.601 371.650,326.231 371.197,326.362 371.192 C 326.493 371.188,327.318 370.558,328.196 369.792 C 329.073 369.027,330.029 368.400,330.319 368.400 C 330.610 368.400,330.736 368.220,330.600 368.000 C 330.464 367.780,330.556 367.600,330.805 367.600 C 331.333 367.600,340.800 358.049,340.800 357.516 C 340.800 357.318,341.339 356.581,341.998 355.878 C 342.657 355.175,343.197 354.375,343.198 354.100 C 343.199 353.825,343.350 353.600,343.532 353.600 C 343.715 353.600,344.119 353.105,344.430 352.500 C 344.740 351.895,345.311 351.109,345.697 350.753 C 346.084 350.397,346.400 349.812,346.400 349.453 C 346.400 349.094,346.580 348.800,346.800 348.800 C 347.020 348.800,347.200 348.522,347.200 348.183 C 347.200 347.844,347.560 347.180,348.000 346.708 C 348.440 346.236,348.800 345.613,348.800 345.325 C 348.800 345.036,349.010 344.800,349.267 344.800 C 349.523 344.800,349.618 344.685,349.477 344.544 C 349.336 344.403,349.463 343.818,349.758 343.244 C 351.293 340.262,352.000 338.672,352.000 338.200 C 352.000 337.912,352.336 336.984,352.748 336.138 C 353.710 334.158,354.400 331.970,354.400 330.895 C 354.400 330.429,354.580 329.936,354.800 329.800 C 355.020 329.664,355.200 329.089,355.200 328.523 C 355.200 327.956,355.372 326.842,355.582 326.046 C 355.792 325.251,356.065 324.105,356.189 323.500 C 356.402 322.463,356.539 322.400,358.584 322.400 C 359.777 322.400,360.864 322.220,361.000 322.000 C 361.136 321.780,361.831 321.600,362.544 321.600 C 363.257 321.600,364.015 321.425,364.229 321.211 C 364.442 320.998,365.014 320.762,365.498 320.688 C 365.983 320.614,366.504 320.429,366.656 320.277 C 366.809 320.125,367.248 320.000,367.633 320.000 C 368.018 320.000,368.393 319.865,368.467 319.700 C 368.659 319.268,371.972 317.600,372.638 317.600 C 372.947 317.600,373.200 317.420,373.200 317.200 C 373.200 316.980,373.430 316.800,373.712 316.800 C 373.993 316.800,374.483 316.440,374.800 316.000 C 375.117 315.560,375.572 315.200,375.810 315.200 C 376.049 315.200,376.929 314.572,377.767 313.804 C 378.605 313.037,379.478 312.525,379.707 312.666 C 379.949 312.816,380.004 312.730,379.838 312.462 C 379.679 312.204,379.785 311.990,380.076 311.978 C 380.364 311.966,381.410 311.055,382.400 309.954 C 383.390 308.852,384.695 307.428,385.300 306.789 C 385.905 306.150,386.400 305.441,386.400 305.213 C 386.400 304.986,386.591 304.800,386.824 304.800 C 387.057 304.800,387.149 304.640,387.028 304.445 C 386.907 304.250,387.089 303.858,387.431 303.574 C 388.056 303.056,389.352 300.872,389.383 300.285 C 389.392 300.112,389.608 299.842,389.863 299.684 C 390.118 299.527,390.453 298.724,390.608 297.899 C 390.762 297.075,391.049 296.400,391.245 296.400 C 391.440 296.400,391.600 295.948,391.600 295.395 C 391.600 294.842,391.758 294.077,391.951 293.695 C 392.540 292.528,393.200 290.192,393.200 289.272 C 393.200 288.792,393.335 288.400,393.500 288.400 C 393.665 288.400,393.800 275.530,393.800 259.800 C 393.800 244.070,393.665 231.200,393.500 231.200 C 393.335 231.200,393.200 230.581,393.200 229.824 C 393.200 229.067,393.020 228.336,392.800 228.200 C 392.580 228.064,392.400 227.423,392.400 226.776 C 392.400 226.129,392.220 225.600,392.000 225.600 C 391.780 225.600,391.600 225.238,391.600 224.795 C 391.600 224.014,391.453 223.617,390.449 221.684 C 390.187 221.180,390.080 220.595,390.210 220.384 C 390.340 220.173,390.257 220.000,390.024 220.000 C 389.791 220.000,389.600 219.764,389.600 219.475 C 389.600 219.187,389.285 218.595,388.900 218.160 C 388.515 217.725,388.143 217.114,388.073 216.803 C 388.003 216.492,387.598 215.994,387.173 215.696 C 386.748 215.398,386.400 214.922,386.400 214.637 C 386.400 214.352,385.860 213.554,385.200 212.863 C 384.540 212.172,384.000 211.518,384.000 211.409 C 384.000 211.053,380.293 207.600,379.911 207.600 C 379.705 207.600,378.846 206.880,378.000 206.000 C 377.154 205.120,376.218 204.400,375.920 204.400 C 375.621 204.400,375.117 204.040,374.800 203.600 C 374.483 203.160,373.893 202.800,373.488 202.800 C 373.084 202.800,372.864 202.620,373.000 202.400 C 373.136 202.180,372.984 202.000,372.661 202.000 C 371.978 202.000,368.662 200.340,368.467 199.900 C 368.393 199.735,367.808 199.600,367.167 199.600 C 366.525 199.600,366.000 199.440,366.000 199.245 C 366.000 198.892,364.740 198.551,361.897 198.135 C 361.071 198.014,360.295 197.755,360.174 197.558 C 360.052 197.361,359.081 197.200,358.015 197.200 L 356.077 197.200 355.849 195.300 C 355.291 190.644,355.100 189.600,354.805 189.600 C 354.632 189.600,354.380 189.060,354.245 188.400 C 354.110 187.740,353.890 186.660,353.755 186.000 C 353.620 185.340,353.389 184.800,353.242 184.800 C 353.095 184.800,352.934 184.313,352.885 183.718 C 352.836 183.122,352.616 182.456,352.398 182.238 C 352.179 182.019,352.000 181.415,352.000 180.896 C 352.000 180.369,351.823 180.062,351.600 180.200 C 351.373 180.340,351.200 180.004,351.200 179.424 C 351.200 178.861,351.056 178.400,350.880 178.400 C 350.705 178.400,350.323 177.725,350.032 176.900 C 349.741 176.075,349.066 174.815,348.531 174.100 L 347.559 172.800 304.075 172.800 L 260.590 172.800 254.695 178.705 C 251.453 181.953,248.800 184.743,248.800 184.905 C 248.800 185.067,254.335 185.200,261.100 185.200 C 274.325 185.200,276.854 185.458,282.635 187.399 C 298.865 192.847,310.816 207.240,313.171 224.174 C 313.758 228.392,313.758 291.208,313.171 295.426 C 310.445 315.026,295.905 329.984,275.600 334.076 C 270.913 335.021,123.139 334.828,119.200 333.872 C 117.550 333.472,115.570 333.005,114.800 332.835 C 99.379 329.434,85.674 313.740,82.437 295.776 C 81.831 292.415,81.831 227.185,82.437 223.824 C 85.600 206.270,96.867 192.803,112.890 187.424 C 119.648 185.156,118.615 185.200,164.492 185.200 L 206.785 185.200 207.008 184.300 C 207.130 183.805,207.179 181.060,207.115 178.200 L 207.000 173.000 195.000 172.758 C 188.400 172.625,182.460 172.384,181.800 172.222 C 173.638 170.226,167.481 166.802,162.600 161.545 C 156.739 155.233,153.483 147.914,152.935 139.821 C 152.558 134.244,154.303 134.800,137.186 134.800 L 122.400 134.800 122.400 118.565 L 122.400 102.330 120.700 102.611 C 119.765 102.766,118.730 103.031,118.400 103.201 C 117.273 103.780,110.650 104.037,108.400 103.589 C 107.190 103.348,105.613 103.052,104.896 102.931 C 104.179 102.811,103.494 102.551,103.373 102.356 C 103.070 101.867,101.200 101.905,101.200 102.400 M201.815 118.023 C 195.614 121.116,194.466 128.727,199.515 133.278 C 202.232 135.729,198.505 135.618,274.259 135.504 L 344.200 135.400 345.984 134.196 C 352.059 130.094,351.636 121.420,345.200 118.140 L 343.400 117.223 273.400 117.227 C 204.481 117.232,203.376 117.244,201.815 118.023 " stroke="none" fill="#d8e0e6" fill-rule="evenodd"></path><path id="path3" d="M106.200 49.200 C 106.064 49.420,105.434 49.600,104.800 49.600 C 104.166 49.600,103.536 49.780,103.400 50.000 C 103.264 50.220,102.728 50.400,102.210 50.400 C 101.691 50.400,101.207 50.578,101.133 50.797 C 101.060 51.015,100.518 51.233,99.929 51.281 C 99.340 51.330,98.945 51.512,99.052 51.685 C 99.160 51.858,98.967 52.000,98.624 52.000 C 98.281 52.000,98.000 52.180,98.000 52.400 C 98.000 52.620,97.768 52.800,97.485 52.800 C 97.202 52.800,96.347 53.333,95.585 53.984 C 94.823 54.635,94.052 55.175,93.871 55.184 C 93.477 55.203,92.230 56.400,92.604 56.400 C 92.748 56.400,92.131 57.106,91.233 57.969 C 90.335 58.831,89.600 59.731,89.600 59.969 C 89.600 60.206,89.420 60.400,89.200 60.400 C 88.980 60.400,88.800 60.681,88.800 61.024 C 88.800 61.367,88.620 61.536,88.400 61.400 C 88.180 61.264,88.000 61.398,88.000 61.697 C 88.000 62.451,87.065 64.393,86.700 64.397 C 86.535 64.399,86.400 64.940,86.400 65.600 C 86.400 66.260,86.220 66.800,86.000 66.800 C 85.780 66.800,85.600 67.160,85.600 67.600 C 85.600 68.040,85.420 68.400,85.200 68.400 C 84.978 68.400,84.800 69.459,84.800 70.776 C 84.800 72.083,84.622 73.263,84.404 73.398 C 83.909 73.704,83.941 80.000,84.438 80.000 C 84.637 80.000,84.800 80.900,84.800 82.000 C 84.800 83.100,84.980 84.000,85.200 84.000 C 85.420 84.000,85.603 84.315,85.606 84.700 C 85.616 85.802,86.630 88.437,86.930 88.137 C 87.078 87.988,87.200 88.347,87.200 88.933 C 87.200 89.520,87.380 90.000,87.600 90.000 C 87.820 90.000,88.000 90.252,88.000 90.559 C 88.000 90.867,88.900 92.038,90.000 93.161 C 91.100 94.285,92.000 95.333,92.000 95.491 C 92.000 96.026,96.109 99.600,96.723 99.600 C 97.059 99.600,97.216 99.717,97.073 99.861 C 96.769 100.165,98.621 101.200,99.469 101.200 C 99.787 101.200,99.957 101.345,99.847 101.523 C 99.738 101.701,100.395 101.891,101.308 101.944 C 102.222 101.998,103.156 102.190,103.385 102.371 C 103.805 102.704,104.639 102.892,109.040 103.651 C 112.541 104.254,122.822 102.832,124.180 101.557 C 124.389 101.361,124.844 101.200,125.192 101.200 C 125.539 101.200,126.083 100.840,126.400 100.400 C 126.717 99.960,127.225 99.600,127.528 99.600 C 127.831 99.600,128.556 99.092,129.140 98.471 C 129.723 97.850,130.695 97.019,131.300 96.625 C 131.905 96.231,132.400 95.743,132.400 95.541 C 132.400 95.339,133.030 94.543,133.800 93.773 C 134.570 93.003,135.200 92.212,135.200 92.015 C 135.200 91.818,135.426 91.419,135.702 91.129 C 135.979 90.838,136.628 89.700,137.146 88.600 C 137.664 87.500,138.248 86.287,138.444 85.905 C 138.640 85.523,138.800 84.769,138.800 84.229 C 138.800 83.689,138.980 83.136,139.200 83.000 C 139.676 82.706,139.756 70.544,139.284 70.252 C 139.110 70.144,138.922 69.369,138.866 68.528 C 138.811 67.688,138.593 66.940,138.382 66.867 C 138.172 66.793,138.000 66.484,138.000 66.179 C 138.000 65.874,137.640 64.989,137.200 64.212 C 136.760 63.435,136.052 62.186,135.627 61.436 C 134.260 59.023,129.937 54.400,129.048 54.400 C 128.789 54.400,128.317 54.040,128.000 53.600 C 127.683 53.160,127.186 52.800,126.895 52.800 C 126.604 52.800,125.980 52.440,125.508 52.000 C 125.036 51.560,124.323 51.200,123.925 51.200 C 123.526 51.200,123.200 51.064,123.200 50.897 C 123.200 50.535,120.338 49.600,119.230 49.600 C 118.799 49.600,118.336 49.420,118.200 49.200 C 118.054 48.963,115.604 48.800,112.200 48.800 C 108.796 48.800,106.346 48.963,106.200 49.200 M239.532 135.900 C 258.304 135.957,288.904 135.957,307.532 135.900 C 326.159 135.842,310.800 135.795,273.400 135.795 C 236.000 135.795,220.759 135.842,239.532 135.900 M258.175 174.900 L 257.000 176.200 258.300 175.025 C 259.015 174.379,259.600 173.794,259.600 173.725 C 259.600 173.416,259.270 173.688,258.175 174.900 M146.800 237.524 C 144.082 238.274,141.713 240.399,140.585 243.097 C 139.711 245.190,139.723 274.439,140.599 276.536 C 143.511 283.505,152.566 284.348,156.984 278.061 L 158.200 276.331 158.200 259.800 L 158.200 243.269 156.984 241.539 C 154.656 238.226,150.373 236.538,146.800 237.524 M243.423 237.773 C 241.241 238.583,240.002 239.577,238.600 241.637 L 237.400 243.400 237.400 259.800 L 237.400 276.200 238.609 277.991 C 242.888 284.328,252.137 283.513,255.050 276.542 C 255.853 274.621,255.853 244.979,255.050 243.058 C 253.175 238.571,247.822 236.138,243.423 237.773 " stroke="none" fill="#80d2f8" fill-rule="evenodd"></path><path id="path4" d="M183.600 15.561 C 183.600 15.755,183.885 16.024,184.233 16.157 C 185.799 16.758,347.824 16.418,348.624 15.812 C 349.308 15.293,339.549 15.222,266.500 15.215 C 218.772 15.211,183.600 15.357,183.600 15.561 M359.039 15.663 C 359.337 16.146,362.800 16.081,362.800 15.593 C 362.800 15.361,361.942 15.216,360.815 15.256 C 359.724 15.294,358.924 15.477,359.039 15.663 M179.600 16.400 C 179.600 16.620,178.981 16.800,178.224 16.800 C 177.467 16.800,176.736 16.980,176.600 17.200 C 176.464 17.420,176.003 17.600,175.576 17.600 C 175.149 17.600,174.800 17.780,174.800 18.000 C 174.800 18.220,174.440 18.400,174.000 18.400 C 173.560 18.400,173.200 18.580,173.200 18.800 C 173.200 19.020,172.840 19.200,172.400 19.200 C 171.960 19.200,171.600 19.380,171.600 19.600 C 171.600 19.820,171.240 20.000,170.800 20.000 C 170.360 20.000,170.000 20.180,170.000 20.400 C 170.000 20.620,169.680 20.800,169.288 20.800 C 168.897 20.800,168.317 21.160,168.000 21.600 C 167.683 22.040,167.201 22.400,166.929 22.400 C 166.296 22.400,159.403 29.136,159.716 29.450 C 159.846 29.579,159.526 30.110,159.007 30.630 C 158.487 31.149,157.946 31.940,157.804 32.387 C 157.662 32.834,157.378 33.200,157.173 33.200 C 156.968 33.200,156.800 33.560,156.800 34.000 C 156.800 34.440,156.620 34.800,156.400 34.800 C 156.180 34.800,156.000 35.160,156.000 35.600 C 156.000 36.040,155.820 36.400,155.600 36.400 C 155.380 36.400,155.200 36.850,155.200 37.400 C 155.200 37.950,155.380 38.400,155.600 38.400 C 155.820 38.400,156.000 38.135,156.000 37.812 C 156.000 37.489,156.343 36.614,156.762 35.867 C 157.182 35.120,157.767 34.080,158.062 33.555 C 158.358 33.030,158.699 32.510,158.819 32.400 C 158.940 32.290,159.462 31.570,159.980 30.800 C 161.333 28.788,165.137 24.899,166.964 23.660 C 167.824 23.077,168.994 22.288,169.564 21.906 C 171.206 20.807,175.289 18.800,175.883 18.800 C 176.181 18.800,176.518 18.557,176.633 18.259 C 176.753 17.945,177.219 17.791,177.744 17.891 C 178.244 17.987,178.868 17.800,179.139 17.473 C 179.409 17.148,179.980 16.974,180.408 17.086 C 181.465 17.363,183.290 16.870,182.993 16.388 C 182.675 15.875,179.600 15.885,179.600 16.400 M365.600 16.400 C 365.600 16.620,365.971 16.800,366.424 16.800 C 366.877 16.800,367.136 16.620,367.000 16.400 C 366.864 16.180,366.493 16.000,366.176 16.000 C 365.859 16.000,365.600 16.180,365.600 16.400 M371.000 18.000 C 371.136 18.220,371.517 18.400,371.847 18.400 C 372.177 18.400,372.336 18.220,372.200 18.000 C 372.064 17.780,371.683 17.600,371.353 17.600 C 371.023 17.600,370.864 17.780,371.000 18.000 M380.800 23.407 C 380.800 23.662,385.525 28.370,386.613 29.200 C 388.007 30.263,386.530 28.484,383.706 25.700 C 381.297 23.324,380.800 22.932,380.800 23.407 M387.357 30.633 C 387.491 30.981,387.600 31.341,387.600 31.433 C 387.600 31.525,387.872 31.600,388.203 31.600 C 388.707 31.600,388.724 31.467,388.307 30.800 C 387.714 29.851,387.009 29.727,387.357 30.633 M389.509 33.424 C 389.200 33.734,390.370 36.000,390.840 36.000 C 391.049 36.000,390.923 35.415,390.559 34.700 C 389.751 33.111,389.783 33.150,389.509 33.424 M390.800 37.000 C 390.800 37.330,390.980 37.600,391.200 37.600 C 391.420 37.600,391.600 37.330,391.600 37.000 C 391.600 36.670,391.420 36.400,391.200 36.400 C 390.980 36.400,390.800 36.670,390.800 37.000 M154.413 39.100 C 154.406 39.815,154.220 40.400,154.000 40.400 C 153.780 40.400,153.600 40.929,153.600 41.576 C 153.600 42.223,153.420 42.864,153.200 43.000 C 152.980 43.136,152.806 44.182,152.813 45.324 C 152.825 47.274,152.863 47.351,153.441 46.600 C 153.829 46.096,153.983 45.328,153.858 44.525 C 153.726 43.682,153.861 43.082,154.255 42.754 C 154.626 42.447,154.763 41.908,154.618 41.330 C 154.490 40.818,154.549 40.400,154.750 40.400 C 155.414 40.400,155.554 39.290,154.985 38.539 C 154.468 37.857,154.424 37.900,154.413 39.100 M392.400 41.800 C 392.400 42.130,392.580 42.400,392.800 42.400 C 393.020 42.400,393.200 42.130,393.200 41.800 C 393.200 41.470,393.020 41.200,392.800 41.200 C 392.580 41.200,392.400 41.470,392.400 41.800 M393.200 45.000 C 393.200 45.550,393.380 46.000,393.600 46.000 C 393.820 46.000,394.000 45.550,394.000 45.000 C 394.000 44.450,393.820 44.000,393.600 44.000 C 393.380 44.000,393.200 44.450,393.200 45.000 M152.300 47.831 C 151.882 48.253,151.921 135.104,152.340 135.363 C 152.527 135.479,152.800 137.279,152.947 139.364 C 153.954 153.703,162.836 165.316,177.000 170.815 C 177.750 171.107,178.577 171.312,183.277 172.375 C 184.356 172.619,189.852 172.800,196.195 172.800 L 207.235 172.800 207.186 178.900 C 207.159 182.255,207.240 185.270,207.367 185.600 C 207.494 185.930,207.647 191.870,207.707 198.800 C 207.767 205.730,207.812 202.670,207.808 192.000 L 207.800 172.600 196.400 172.334 C 184.016 172.046,182.532 171.881,176.845 170.166 C 171.302 168.494,159.600 159.422,159.600 156.797 C 159.600 156.579,159.420 156.400,159.200 156.400 C 158.980 156.400,158.800 156.145,158.800 155.833 C 158.800 155.522,158.656 155.207,158.480 155.133 C 158.100 154.975,155.600 149.841,155.600 149.220 C 155.600 148.983,155.438 148.477,155.239 148.095 C 154.788 147.227,154.204 144.924,153.637 141.776 C 153.340 140.129,153.185 124.998,153.153 94.576 C 153.108 52.155,153.016 47.109,152.300 47.831 M203.600 52.673 C 199.862 53.321,195.925 57.493,196.040 60.684 C 196.075 61.664,196.123 61.618,196.433 60.303 C 196.954 58.093,198.583 55.755,200.473 54.504 L 202.141 53.400 252.065 53.295 L 301.989 53.191 303.797 54.041 C 305.731 54.950,307.395 56.656,308.244 58.600 C 308.574 59.354,308.775 59.537,308.784 59.091 C 308.806 58.112,306.942 55.389,305.660 54.527 C 302.590 52.462,306.326 52.604,253.600 52.550 C 226.650 52.522,204.150 52.578,203.600 52.673 M308.857 62.139 C 308.857 65.647,306.668 69.427,304.045 70.450 C 303.519 70.655,303.187 70.921,303.307 71.041 C 304.021 71.754,307.320 68.845,308.347 66.597 C 308.647 65.939,309.052 65.087,309.247 64.705 C 309.714 63.787,309.701 60.510,309.229 60.218 C 309.018 60.087,308.857 60.917,308.857 62.139 M196.013 64.222 C 195.988 66.592,198.939 70.179,201.949 71.436 C 203.432 72.056,302.158 72.315,302.538 71.700 C 302.640 71.535,280.286 71.400,252.862 71.400 C 206.936 71.400,202.889 71.347,201.600 70.726 C 199.490 69.711,197.581 67.502,196.761 65.127 C 196.131 63.304,196.024 63.175,196.013 64.222 M203.600 84.787 C 199.556 85.662,195.926 89.454,196.039 92.684 C 196.074 93.658,196.137 93.595,196.539 92.187 C 197.445 89.015,199.193 86.994,202.146 85.701 C 204.358 84.734,343.231 84.995,345.143 85.971 C 351.835 89.385,352.186 98.148,345.800 102.348 L 344.200 103.400 273.400 103.400 C 208.277 103.400,202.504 103.347,201.400 102.738 C 198.910 101.365,197.164 99.179,196.497 96.600 C 196.141 95.226,196.077 95.157,196.041 96.116 C 195.984 97.658,197.276 100.032,198.991 101.539 C 202.012 104.191,196.239 104.000,273.462 104.000 L 343.627 104.000 345.615 102.992 C 352.932 99.285,352.642 89.432,345.095 85.307 C 343.716 84.554,207.001 84.051,203.600 84.787 M204.000 116.770 C 199.882 117.392,195.917 121.335,196.041 124.684 C 196.077 125.643,196.141 125.574,196.497 124.200 C 197.211 121.439,198.832 119.498,201.684 117.986 C 203.712 116.912,341.978 116.730,344.536 117.799 C 352.347 121.063,352.078 132.553,344.128 135.269 C 342.094 135.964,208.456 136.277,204.464 135.597 C 200.289 134.885,197.672 132.578,196.539 128.613 C 196.137 127.205,196.074 127.142,196.039 128.116 C 195.950 130.659,199.167 134.564,202.248 135.652 C 204.811 136.557,342.831 136.459,344.829 135.550 C 352.535 132.045,352.970 121.941,345.600 117.648 L 343.800 116.600 274.800 116.549 C 236.850 116.521,204.990 116.620,204.000 116.770 M393.200 143.576 C 393.200 144.249,393.380 144.800,393.600 144.800 C 393.820 144.800,394.000 144.361,394.000 143.824 C 394.000 143.287,393.820 142.736,393.600 142.600 C 393.367 142.456,393.200 142.863,393.200 143.576 M392.400 147.200 C 392.400 147.640,392.580 148.000,392.800 148.000 C 393.020 148.000,393.200 147.640,393.200 147.200 C 393.200 146.760,393.020 146.400,392.800 146.400 C 392.580 146.400,392.400 146.760,392.400 147.200 M391.600 149.624 C 391.600 150.077,391.780 150.336,392.000 150.200 C 392.220 150.064,392.400 149.693,392.400 149.376 C 392.400 149.059,392.220 148.800,392.000 148.800 C 391.780 148.800,391.600 149.171,391.600 149.624 M390.800 151.967 C 390.800 152.388,390.575 152.824,390.300 152.935 C 390.001 153.056,390.082 153.150,390.500 153.168 C 390.885 153.186,391.200 153.035,391.200 152.833 C 391.200 152.631,391.309 152.181,391.443 151.833 C 391.576 151.485,391.486 151.200,391.243 151.200 C 390.999 151.200,390.800 151.545,390.800 151.967 M389.400 154.400 C 389.264 154.620,389.266 154.800,389.405 154.800 C 389.544 154.800,389.285 155.274,388.829 155.854 C 388.373 156.434,388.000 157.091,388.000 157.314 C 388.000 157.537,388.540 156.975,389.200 156.063 C 389.860 155.152,390.400 154.315,390.400 154.203 C 390.400 153.841,389.655 153.988,389.400 154.400 M386.523 159.097 C 385.609 160.225,385.575 160.904,386.481 159.946 C 387.559 158.805,388.086 158.000,387.749 158.008 C 387.557 158.012,387.005 158.502,386.523 159.097 M379.700 165.798 C 378.957 166.642,379.094 166.873,380.000 166.307 C 380.440 166.032,380.800 165.671,380.800 165.504 C 380.800 165.027,380.249 165.175,379.700 165.798 M364.012 172.384 C 363.139 172.936,363.800 173.337,365.061 173.021 C 365.919 172.805,366.032 172.665,365.579 172.379 C 364.859 171.923,364.741 171.923,364.012 172.384 M253.800 178.800 C 250.285 182.320,247.553 185.200,247.728 185.200 C 247.903 185.200,250.801 182.411,254.167 179.002 L 260.287 172.804 303.843 172.700 L 347.400 172.596 303.795 172.498 L 260.191 172.400 253.800 178.800 " stroke="none" fill="#61e8b9" fill-rule="evenodd"></path></g></svg>