<?xml version="1.0" encoding="UTF-8"?>
<svg version="1.1" xmlns="http://www.w3.org/2000/svg" width="461" height="121">
<path d="M0 0 C1.7133925 -0.00524268 3.42678211 -0.01152151 5.14016724 -0.01878357 C8.72265245 -0.0291618 12.30473985 -0.0246647 15.88720703 -0.01000977 C20.45566647 0.00715802 25.02286573 -0.01630525 29.59118462 -0.05149937 C33.12765683 -0.0735681 36.66383203 -0.07200886 40.20035172 -0.06373405 C41.8834992 -0.06291939 43.56666957 -0.06968907 45.24975204 -0.08450508 C55.82650362 -0.16333874 64.86444005 0.21243752 72.9453125 7.87890625 C76.55615901 14.08956225 77.9568503 19.62723856 77.91186523 26.76733398 C77.91872849 27.54408478 77.92559174 28.32083557 77.93266296 29.12112427 C77.95082058 31.66427389 77.9471095 34.20680008 77.94140625 36.75 C77.94597332 38.53304746 77.95128045 40.31609317 77.95729065 42.09913635 C77.96620005 45.82698745 77.9638234 49.55462406 77.95385742 53.2824707 C77.94236976 58.04141219 77.96258706 62.79961142 77.99177456 67.55845547 C78.01018833 71.23810976 78.00983383 74.91758785 78.00413704 78.59727669 C78.00398446 80.35102441 78.00997587 82.10478456 78.02242851 83.85848808 C78.1395268 103.05070671 78.1395268 103.05070671 71.54296875 110.90625 C70.56650391 111.69708984 70.56650391 111.69708984 69.5703125 112.50390625 C68.92191406 113.04917969 68.27351563 113.59445313 67.60546875 114.15625 C62.88565596 117.32915953 58.59732669 117.86428939 53.01464844 117.85693359 C51.90870079 117.86700943 51.90870079 117.86700943 50.78041077 117.87728882 C48.35093378 117.89623396 45.9217337 117.90019157 43.4921875 117.90234375 C41.79453419 117.90877536 40.09688197 117.91550399 38.39923096 117.92251587 C34.84181145 117.93448083 31.28448898 117.93819763 27.72705078 117.93701172 C23.18663959 117.93680886 18.64685667 117.96407959 14.10659409 117.99855614 C10.59937734 118.02088675 7.09231014 118.02484734 3.5850296 118.02379227 C1.91221202 118.02614016 0.23938981 118.03491764 -1.43335724 118.050457 C-11.36197809 118.13403724 -19.55166536 117.93006191 -27.83203125 111.84765625 C-35.95928574 102.78646298 -34.79342374 90.2584298 -34.7578125 78.73828125 C-34.75916533 77.33644545 -34.76111095 75.93461011 -34.76361084 74.53277588 C-34.76653701 71.61148561 -34.76234886 68.69031873 -34.75292969 65.76904297 C-34.74157934 62.07379605 -34.7480826 58.37884126 -34.76007462 54.68360519 C-34.76739829 51.79205232 -34.76495721 48.90056548 -34.75981903 46.00901031 C-34.75788387 43.99988104 -34.76383131 41.99074891 -34.77008057 39.98162842 C-34.63628794 13.21156172 -34.63628794 13.21156172 -27.734375 6.14453125 C-18.70640265 -0.20965138 -10.65403289 -0.03969802 0 0 Z " fill="#213763" transform="translate(37.4921875,0.43359375)"/>
<path d="M0 0 C24.02809137 -1.07771594 24.02809137 -1.07771594 31 5 C36.13430698 10.43912669 39.139703 14.71375687 39.09765625 22.32421875 C39.09282227 23.86625977 39.09282227 23.86625977 39.08789062 25.43945312 C39.07532227 27.04723633 39.07532227 27.04723633 39.0625 28.6875 C39.05798828 29.77095703 39.05347656 30.85441406 39.04882812 31.97070312 C39.03703743 34.64719085 39.02058063 37.32356777 39 40 C38.07658813 40.08109009 38.07658813 40.08109009 37.13452148 40.16381836 C35.92131226 40.28188843 35.92131226 40.28188843 34.68359375 40.40234375 C33.48174438 40.51437134 33.48174438 40.51437134 32.25561523 40.62866211 C29.36260283 41.10493355 27.38505767 42.33768708 25 44 C24.34 44 23.68 44 23 44 C22.71125 44.5775 22.4225 45.155 22.125 45.75 C21.43718442 47.12563117 20.71529781 48.48566845 19.9375 49.8125 C18.79987348 52.15270046 18.79987348 52.15270046 18.6875 55.5625 C18 59 18 59 15.875 60.5 C14.92625 60.995 13.9775 61.49 13 62 C11.14298962 63.73076626 9.39708588 65.53926486 7.6484375 67.37890625 C5.08791334 69.89695726 3.6482059 71 0 71 C0 67.04 0 63.08 0 59 C-1.670625 59.1546875 -1.670625 59.1546875 -3.375 59.3125 C-9.84540896 59.27814385 -15.28046069 56.42945511 -20.05078125 52.16796875 C-25.88441778 45.83466314 -29.49474641 39.63265601 -29.3515625 30.8984375 C-29.31804688 30.10695313 -29.28453125 29.31546875 -29.25 28.5 C-29.23195313 27.67757812 -29.21390625 26.85515625 -29.1953125 26.0078125 C-29.1487283 24.00469196 -29.07700699 22.00218179 -29 20 C-28.25838623 19.9906543 -27.51677246 19.98130859 -26.75268555 19.97167969 C-23.39694286 19.91804249 -20.04260438 19.83438207 -16.6875 19.75 C-15.52025391 19.73582031 -14.35300781 19.72164062 -13.15039062 19.70703125 C-12.03212891 19.67480469 -10.91386719 19.64257812 -9.76171875 19.609375 C-8.73006592 19.58842773 -7.69841309 19.56748047 -6.63549805 19.54589844 C-3.89919929 19.22854993 -3.89919929 19.22854993 -2.171875 17.19140625 C-0.46237594 13.994643 -0.42984707 10.79723425 -0.3125 7.25 C-0.27833984 6.55261719 -0.24417969 5.85523438 -0.20898438 5.13671875 C-0.12691705 3.42502892 -0.06177081 1.7125424 0 0 Z " fill="#F8FAFA" transform="translate(56,38)"/>
<path d="M0 0 C2.1796875 0.015625 2.1796875 0.015625 4.125 0.375 C6.15329372 2.78359879 7.125 4.20544309 7.125 7.375 C7.785 7.375 8.445 7.375 9.125 7.375 C10.43011936 9.26217259 11.64281844 11.21351874 12.8125 13.1875 C13.5265704 14.37936992 14.24142885 15.57076802 14.95703125 16.76171875 C15.31748535 17.3654834 15.67793945 17.96924805 16.04931641 18.59130859 C17.65598588 21.25547727 19.32568809 23.87796437 21 26.5 C21.55429687 27.36882813 22.10859375 28.23765625 22.6796875 29.1328125 C23.81257986 30.89032659 24.96511925 32.63517888 26.125 34.375 C27.13412231 25.67132008 27.20128876 17.0752856 27.08789062 8.32348633 C27.07951172 7.43943115 27.07113281 6.55537598 27.0625 5.64453125 C27.05089844 4.84635986 27.03929687 4.04818848 27.02734375 3.22583008 C27.125 1.375 27.125 1.375 28.125 0.375 C31.095 0.375 34.065 0.375 37.125 0.375 C37.125 18.525 37.125 36.675 37.125 55.375 C28.125 55.375 28.125 55.375 26.109375 53.65234375 C25.70203125 52.88019531 25.2946875 52.10804687 24.875 51.3125 C24.40964844 50.49136719 23.94429688 49.67023438 23.46484375 48.82421875 C23.02269531 48.01597656 22.58054687 47.20773438 22.125 46.375 C21.24963401 45.11058245 20.35541591 43.85887509 19.4375 42.625 C17.51665367 39.92543218 15.82675054 37.21125091 14.125 34.375 C12.90495173 32.64124719 11.6627239 30.92626581 10.40625 29.21875 C8.87069921 27.00905496 7.50943039 24.68238399 6.125 22.375 C5.795 33.265 5.465 44.155 5.125 55.375 C1.825 55.375 -1.475 55.375 -4.875 55.375 C-4.89963993 47.70288327 -4.91783123 40.03078935 -4.92993164 32.35864258 C-4.93497377 29.74633381 -4.94180725 27.13402789 -4.95043945 24.52172852 C-4.96251036 20.77619732 -4.96822935 17.03070328 -4.97265625 13.28515625 C-4.97781754 12.10913345 -4.98297882 10.93311066 -4.98829651 9.72145081 C-4.98840981 8.09988319 -4.98840981 8.09988319 -4.98852539 6.44555664 C-4.990746 5.48847305 -4.99296661 4.53138947 -4.99525452 3.54530334 C-4.78572338 -0.23622712 -3.99287164 0.38640693 0 0 Z " fill="#DDDDDD" transform="translate(368.875,28.625)"/>
<path d="M0 0 C3.96 0 7.92 0 12 0 C13.61830245 4.70958093 15.2356855 9.41947633 16.85229492 14.12963867 C17.39990701 15.72477299 17.94775041 17.31982791 18.49584961 18.91479492 C20.08197134 23.53068538 21.6611502 28.14887051 23.23529053 32.76885986 C23.98520452 34.95683224 24.74666924 37.1404972 25.51025391 39.32373047 C25.97190023 40.66235886 26.4333371 42.00105951 26.89453125 43.33984375 C27.3016333 44.50765381 27.70873535 45.67546387 28.12817383 46.87866211 C28.93701581 49.77450212 29.18829673 52.01834403 29 55 C26.03 55 23.06 55 20 55 C17.57537986 50.38540038 16.03572856 47.1786428 15 42 C9.06 41.67 3.12 41.34 -3 41 C-3.33 42.98 -3.66 44.96 -4 47 C-4.87997689 49.72656051 -5.9426227 52.33357029 -7 55 C-10.3 55 -13.6 55 -17 55 C-16.44078328 49.24776866 -15.29399902 44.18481519 -13.41796875 38.73046875 C-13.16251785 37.96881912 -12.90706696 37.20716949 -12.64387512 36.42243958 C-11.83212629 34.00834967 -11.00986834 31.59799007 -10.1875 29.1875 C-9.64712281 27.58290563 -9.10740399 25.97808939 -8.56835938 24.37304688 C-5.81807565 16.20856564 -2.98793515 8.08117086 0 0 Z M5 15 C4.16503985 17.81202652 3.33195724 20.62458512 2.5 23.4375 C2.26152344 24.23994141 2.02304687 25.04238281 1.77734375 25.86914062 C0.54533158 29.37913185 0.54533158 29.37913185 0 33 C3.96 33 7.92 33 12 33 C10.72520789 26.8221613 9.1079151 20.94432058 7 15 C6.34 15 5.68 15 5 15 Z " fill="#E0E0E0" transform="translate(429,29)"/>
<path d="M0 0 C2.97 0 5.94 0 9 0 C9 18.15 9 36.3 9 55 C6.03 55 3.06 55 0 55 C-0.66 54.01 -1.32 53.02 -2 52 C-2.52980469 52.72896484 -2.52980469 52.72896484 -3.0703125 53.47265625 C-5.93250893 55.73807893 -8.27413387 55.43369359 -11.875 55.4375 C-13.69644531 55.46650391 -13.69644531 55.46650391 -15.5546875 55.49609375 C-20.34353566 54.80654305 -22.54275132 52.56133787 -25.75 49.125 C-29.77944608 42.27494167 -28.57287129 31.60908914 -27.375 24.0625 C-25.65198228 20.22486961 -23.43582329 17.44946253 -20 15 C-15.09573903 13.35869422 -9.94702902 13.37860776 -5.0625 14.9375 C-3 16 -3 16 -2 17 C-1.93941406 15.85660156 -1.87882812 14.71320312 -1.81640625 13.53515625 C-1.73201572 12.04425695 -1.64736698 10.55337225 -1.5625 9.0625 C-1.52318359 8.30775391 -1.48386719 7.55300781 -1.44335938 6.77539062 C-1.11328125 1.11328125 -1.11328125 1.11328125 0 0 Z M-13.8125 23.1875 C-16.70510065 25.58422625 -17.90878619 27.19604575 -18.3359375 30.9609375 C-18.34882813 32.08757813 -18.36171875 33.21421875 -18.375 34.375 C-18.40335937 35.49648437 -18.43171875 36.61796875 -18.4609375 37.7734375 C-17.9051308 41.6640844 -16.78944381 43.27508069 -14 46 C-10.55018394 46.92405787 -8.15005353 47.31082528 -4.6875 46.375 C-1.77888207 44.00501502 -1.10186015 40.92070993 -0.69921875 37.28125 C-0.68208531 33.2149142 -0.72164056 29.80233015 -2.0625 25.9375 C-5.5580503 22.4419497 -9.20072765 21.24030723 -13.8125 23.1875 Z " fill="#DEDEDE" transform="translate(291,29)"/>
<path d="M0 0 C3.29044927 1.96055936 5.60468197 3.91672187 7.5 7.3125 C7.75 11.125 7.75 11.125 7.5 14.3125 C4.4504546 14.60019296 1.53796653 14.76357553 -1.5 14.3125 C-3.25 11.9375 -3.25 11.9375 -4.5 9.3125 C-7.45781439 7.55379955 -9.17885642 7.29965426 -12.625 7.4375 C-15.54278221 8.09521028 -15.54278221 8.09521028 -17.375 10.0625 C-18.68152386 12.67554771 -18.74038873 14.42783524 -18.5 17.3125 C-17.84 17.3125 -17.18 17.3125 -16.5 17.3125 C-16.5 17.9725 -16.5 18.6325 -16.5 19.3125 C-15.7265625 19.49425781 -14.953125 19.67601563 -14.15625 19.86328125 C-8.0814517 21.32935262 -2.2949447 22.97223387 3.5 25.3125 C3.5 25.9725 3.5 26.6325 3.5 27.3125 C4.139375 27.56 4.77875 27.8075 5.4375 28.0625 C7.5 29.3125 7.5 29.3125 8.1171875 31.11328125 C9.04313188 36.43273725 9.51397106 42.66596129 6.5 47.3125 C3.78296383 50.77506439 0.90024363 52.88346813 -3.5078125 53.67138672 C-10.51265981 54.3929226 -18.39025119 54.91156623 -24.4375 50.8125 C-27.93962009 47.44630694 -29.35000816 43.98913346 -30.5 39.3125 C-30.17 38.3225 -29.84 37.3325 -29.5 36.3125 C-26.53 36.3125 -23.56 36.3125 -20.5 36.3125 C-20.21125 37.09625 -19.9225 37.88 -19.625 38.6875 C-18.65087746 41.40921632 -18.65087746 41.40921632 -16.5 43.3125 C-11.50934517 44.52829803 -7.11434075 44.84294493 -2.5 42.3125 C-2.5 39.6725 -2.5 37.0325 -2.5 34.3125 C-6.48390157 32.49376233 -10.33763629 31.03827564 -14.5625 29.875 C-18.87726176 28.62338972 -22.0157774 27.15489213 -25.5 24.3125 C-25.5 23.6525 -25.5 22.9925 -25.5 22.3125 C-26.16 22.3125 -26.82 22.3125 -27.5 22.3125 C-28.7866645 19.739171 -28.66824551 17.81026962 -28.6875 14.9375 C-28.70167969 13.98101562 -28.71585938 13.02453125 -28.73046875 12.0390625 C-28.49745572 9.28239983 -27.90920164 7.66302605 -26.5 5.3125 C-25.84 5.3125 -25.18 5.3125 -24.5 5.3125 C-24.29375 4.714375 -24.0875 4.11625 -23.875 3.5 C-19.16779208 -3.98873987 -7.21178218 -3.32228168 0 0 Z " fill="#DFDFDF" transform="translate(167.5,30.6875)"/>
<path d="M0 0 C3.3 0 6.6 0 10 0 C10.33 5.61 10.66 11.22 11 17 C11.66 16.34 12.32 15.68 13 15 C17.86992703 13.19632332 22.74723508 13.68150044 27.6875 14.9375 C32.29616103 17.80704366 33.57616505 20.82581103 35 26 C35.46235343 31.03463382 35.37942854 36.01229795 35.25 41.0625 C35.22989291 42.41859325 35.21164961 43.77471547 35.1953125 45.13085938 C35.14847313 48.42132486 35.08288862 51.71027835 35 55 C31.7 55 28.4 55 25 55 C24.97494385 54.23856689 24.9498877 53.47713379 24.92407227 52.69262695 C24.80780952 49.23242624 24.68522022 45.77247746 24.5625 42.3125 C24.52318359 41.11431641 24.48386719 39.91613281 24.44335938 38.68164062 C24.40146484 37.52470703 24.35957031 36.36777344 24.31640625 35.17578125 C24.27974854 34.11270752 24.24309082 33.04963379 24.20532227 31.9543457 C24.03787859 28.63620206 24.03787859 28.63620206 23 24 C19.37 24 15.74 24 12 24 C11.09274139 27.62903443 10.80620862 30.58339617 10.68359375 34.296875 C10.64169922 35.50214844 10.59980469 36.70742187 10.55664062 37.94921875 C10.51732422 39.20347656 10.47800781 40.45773438 10.4375 41.75 C10.39431641 43.01972656 10.35113281 44.28945312 10.30664062 45.59765625 C10.20060278 48.73166365 10.09853942 51.86574933 10 55 C6.7 55 3.4 55 0 55 C0 36.85 0 18.7 0 0 Z " fill="#D9D9D9" transform="translate(182,29)"/>
<path d="M0 0 C6.89853374 6.25680967 6.89853374 6.25680967 7.1953125 11.35546875 C7.13020833 14.90364583 7.06510417 18.45182292 7 22 C-1.25 22 -9.5 22 -18 22 C-15.98848737 28.77489892 -15.98848737 28.77489892 -13 30 C-7.83923472 30.51516577 -7.83923472 30.51516577 -3.5 28 C-0.22370872 25.37896697 1.9156949 25.67966234 6 26 C6.8125 28.125 6.8125 28.125 7 31 C4.59330515 34.40948437 2.47401731 36.68398846 -1 39 C-7.2035172 39.77975244 -13.95621129 40.43467978 -19.7265625 37.71484375 C-25.15623347 33.25112548 -27.50460993 28.23276324 -28.30859375 21.36328125 C-28.60065483 15.01759047 -27.69315583 9.31122745 -24 4 C-23.01 3.67 -22.02 3.34 -21 3 C-20.67 2.01 -20.34 1.02 -20 0 C-13.94655825 -2.87538483 -5.92262881 -3.4548668 0 0 Z M-16 8 C-16.33 10.31 -16.66 12.62 -17 15 C-12.05 15 -7.1 15 -2 15 C-2.3909253 9.33884156 -2.3909253 9.33884156 -4.6875 7.125 C-9.02911049 5.01286517 -12.04315886 5.36210591 -16 8 Z " fill="#E0E0E0" transform="translate(250,45)"/>
<path d="M0 0 C2.97 0 5.94 0 9 0 C9.01981934 0.80219971 9.03963867 1.60439941 9.06005859 2.4309082 C9.15519495 6.05844177 9.2649208 9.68539045 9.375 13.3125 C9.4059375 14.57513672 9.436875 15.83777344 9.46875 17.13867188 C9.50742187 18.34716797 9.54609375 19.55566406 9.5859375 20.80078125 C9.6173584 21.91622314 9.6487793 23.03166504 9.68115234 24.1809082 C9.805249 27.20368786 9.805249 27.20368786 12 30 C17.08642648 30.70092029 17.08642648 30.70092029 21.59130859 28.86254883 C23.61052732 26.19277072 23.43375542 24.1220193 23.51171875 20.80078125 C23.54716797 19.59228516 23.58261719 18.38378906 23.61914062 17.13867188 C23.64169922 15.87603516 23.66425781 14.61339844 23.6875 13.3125 C23.72166016 12.03826172 23.75582031 10.76402344 23.79101562 9.45117188 C23.87360784 6.30086897 23.94272335 3.15084843 24 0 C26.97 0 29.94 0 33 0 C33 13.2 33 26.4 33 40 C30.03 40 27.06 40 24 40 C23.67 39.01 23.34 38.02 23 37 C22.6390625 37.48855469 22.278125 37.97710937 21.90625 38.48046875 C19.13655893 40.68827577 16.99280565 40.36363342 13.5 40.3125 C12.3553125 40.30863281 11.210625 40.30476563 10.03125 40.30078125 C7 40 7 40 4 38 C4 37.34 4 36.68 4 36 C3.34 36 2.68 36 2 36 C-0.39954544 32.26368357 -0.22993687 28.97204502 -0.1953125 24.609375 C-0.1924826 23.90476135 -0.18965271 23.20014771 -0.18673706 22.47418213 C-0.17557801 20.2326124 -0.15048193 17.99144814 -0.125 15.75 C-0.11496464 14.22656829 -0.10583976 12.70313029 -0.09765625 11.1796875 C-0.07565291 7.45299414 -0.04115272 3.72653667 0 0 Z " fill="#EDEDED" transform="translate(307,44)"/>
<path d="M0 0 C1.32 0.33 2.64 0.66 4 1 C4 1.99 4 2.98 4 4 C6.97 4 9.94 4 13 4 C13 2.68 13 1.36 13 0 C13.99 0 14.98 0 16 0 C16 1.65 16 3.3 16 5 C16.804375 5.144375 17.60875 5.28875 18.4375 5.4375 C21 6 21 6 22 7 C22.25201884 10.61805871 22.18522535 14.2492008 22.1875 17.875 C22.19974609 18.89464844 22.21199219 19.91429688 22.22460938 20.96484375 C22.22750977 22.43244141 22.22750977 22.43244141 22.23046875 23.9296875 C22.23457764 24.82929199 22.23868652 25.72889648 22.24291992 26.65576172 C22 29 22 29 20 32 C17.6015625 32.38818359 17.6015625 32.38818359 14.625 32.3984375 C13.02398437 32.40423828 13.02398437 32.40423828 11.390625 32.41015625 C10.27171875 32.39855469 9.1528125 32.38695312 8 32.375 C6.88109375 32.38660156 5.7621875 32.39820313 4.609375 32.41015625 C3.54203125 32.40628906 2.4746875 32.40242188 1.375 32.3984375 C0.39273437 32.39505371 -0.58953125 32.39166992 -1.6015625 32.38818359 C-2.39304687 32.26008301 -3.18453125 32.13198242 -4 32 C-6.13876592 28.79185112 -6.25576428 27.9122927 -6.265625 24.21875 C-6.26820312 23.29449219 -6.27078125 22.37023437 -6.2734375 21.41796875 C-6.26570313 20.45503906 -6.25796875 19.49210937 -6.25 18.5 C-6.25773437 17.53707031 -6.26546875 16.57414062 -6.2734375 15.58203125 C-6.27085938 14.65777344 -6.26828125 13.73351562 -6.265625 12.78125 C-6.26224121 11.5137793 -6.26224121 11.5137793 -6.25878906 10.22070312 C-6 8 -6 8 -4 5 C-2.68 5 -1.36 5 0 5 C0 3.35 0 1.7 0 0 Z " fill="#EDF1F6" transform="translate(30,22)"/>
<path d="M0 0 C4.26340064 2.32411929 7.21119005 5.47234228 9 10 C9.35926074 14.04916794 8.85856194 17.65083124 6.66015625 21.10546875 C1.84187819 26.81907477 1.84187819 26.81907477 -2.42578125 27.23828125 C-10.25717735 27.43962973 -10.25717735 27.43962973 -14.0625 25.1875 C-17.60267704 21.19052592 -18.31463403 18.90098553 -18.375 13.625 C-18.40335937 12.50351563 -18.43171875 11.38203125 -18.4609375 10.2265625 C-17.9056641 6.33964872 -16.71904952 4.7779459 -14 2 C-9.52226307 -0.98515795 -5.24406002 -0.84841138 0 0 Z " fill="#4FAB89" transform="translate(96,82)"/>
<path d="M0 0 C2.97 0 5.94 0 9 0 C9 18.15 9 36.3 9 55 C6.03 55 3.06 55 0 55 C0 36.85 0 18.7 0 0 Z " fill="#F0F0F0" transform="translate(347,29)"/>
<path d="M0 0 C6.6 0 13.2 0 20 0 C20 5.28 20 10.56 20 16 C13.4 16 6.8 16 0 16 C0 10.72 0 5.44 0 0 Z " fill="#344469" transform="translate(28,34)"/>
<path d="M0 0 C1.32 0.33 2.64 0.66 4 1 C4 1.99 4 2.98 4 4 C6.97 4 9.94 4 13 4 C13 2.68 13 1.36 13 0 C13.99 0.33 14.98 0.66 16 1 C15.34 1 14.68 1 14 1 C14 2.32 14 3.64 14 5 C9.545 5.495 9.545 5.495 5 6 C4.67 6.99 4.34 7.98 4 9 C2.02 9.99 2.02 9.99 0 11 C5.94 11 11.88 11 18 11 C18 11.33 18 11.66 18 12 C11.4 12 4.8 12 -2 12 C-2 17.28 -2 22.56 -2 28 C4.6 28 11.2 28 18 28 C18 28.33 18 28.66 18 29 C11.73 29 5.46 29 -1 29 C-1 29.99 -1 30.98 -1 32 C-2.9375 31.625 -2.9375 31.625 -5 31 C-6.8779923 27.24401541 -6.18475762 22.69526018 -6.1875 18.5625 C-6.19974609 17.59505859 -6.21199219 16.62761719 -6.22460938 15.63085938 C-6.22654297 14.70208984 -6.22847656 13.77332031 -6.23046875 12.81640625 C-6.23457764 11.96506104 -6.23868652 11.11371582 -6.24291992 10.23657227 C-6 8 -6 8 -4 5 C-2.68 5 -1.36 5 0 5 C0 3.35 0 1.7 0 0 Z " fill="#D5DBE5" transform="translate(30,22)"/>
<path d="M0 0 C2.65345977 0.97293525 3.7897044 1.62368156 5.1875 4.125 C5.455625 5.07375 5.72375 6.0225 6 7 C6.18175781 7.61359375 6.36351563 8.2271875 6.55078125 8.859375 C7.27657289 12.11597054 7.5365357 14.09535566 5.79296875 17.03515625 C0.91798312 22.81159908 0.91798312 22.81159908 -3.42578125 23.23828125 C-11.25717735 23.43962973 -11.25717735 23.43962973 -15.0625 21.1875 C-18.27820877 17.55686107 -19.24931346 15.59856824 -19.125 10.8125 C-19.10695313 9.91144531 -19.08890625 9.01039062 -19.0703125 8.08203125 C-19.04710938 7.39496094 -19.02390625 6.70789063 -19 6 C-18.34 6 -17.68 6 -17 6 C-16.97421875 6.60328125 -16.9484375 7.2065625 -16.921875 7.828125 C-16.62611413 13.06981501 -16.62611413 13.06981501 -13.9375 17.4375 C-13.298125 17.953125 -12.65875 18.46875 -12 19 C-12 19.66 -12 20.32 -12 21 C-9.36 21 -6.72 21 -4 21 C-3.81824219 19.7315625 -3.81824219 19.7315625 -3.6328125 18.4375 C-2.70916305 12.18510375 -1.67335583 6.09579623 0 0 Z " fill="#51AD8B" transform="translate(97,86)"/>
<path d="M0 0 C1.11773048 -0.01226624 1.11773048 -0.01226624 2.25804138 -0.02478027 C4.7259746 -0.04960386 7.19385018 -0.06614724 9.66186523 -0.08056641 C10.50717237 -0.08589008 11.35247952 -0.09121376 12.22340202 -0.09669876 C16.70231087 -0.123424 21.18119197 -0.14279625 25.66015625 -0.15722656 C29.35474575 -0.17053543 33.04877895 -0.19833187 36.74316406 -0.23925781 C41.21412453 -0.2887812 45.68458259 -0.31337223 50.15580559 -0.32045364 C51.85295025 -0.32713553 53.55008506 -0.3422771 55.24707222 -0.36634445 C73.63802705 -0.61217844 73.63802705 -0.61217844 80.65795898 5.19287109 C81.15295898 6.67787109 81.15295898 6.67787109 81.65795898 8.19287109 C78.76007758 7.74704319 77.46414672 7.04005007 75.11035156 5.18408203 C70.60035583 2.58288514 67.15786752 2.59065007 62.04467773 2.58349609 C61.11685989 2.56695984 60.18904205 2.55042358 59.23310852 2.53338623 C56.2704936 2.48503069 53.30838228 2.4636432 50.34545898 2.44287109 C48.39686514 2.41467522 46.4482956 2.38474282 44.49975586 2.35302734 C38.88590832 2.26828656 33.27233682 2.22337487 27.65795898 2.19287109 C26.83551697 2.18772491 26.01307495 2.18257874 25.16571045 2.17727661 C17.06995382 2.13137144 8.99180667 2.12700883 0.90795898 2.63037109 C0.16803711 2.6696875 -0.57188477 2.70900391 -1.33422852 2.74951172 C-5.08291049 2.96784893 -8.68339292 3.33582558 -12.34204102 4.19287109 C-12.34204102 4.85287109 -12.34204102 5.51287109 -12.34204102 6.19287109 C-13.66204102 5.86287109 -14.98204102 5.53287109 -16.34204102 5.19287109 C-10.61071116 1.24462164 -6.85836148 0.04156761 0 0 Z " fill="#17253D" transform="translate(27.342041015625,0.80712890625)"/>
<path d="M0 0 C0.99 0.495 0.99 0.495 2 1 C2 1.33 2 1.66 2 2 C4.31 2.33 6.62 2.66 9 3 C5.18986328 7.23348525 2.20168555 8.84975835 -3.52449036 9.24050903 C-4.89498427 9.24626369 -6.26555221 9.24108746 -7.63598633 9.22705078 C-8.76361893 9.22748886 -8.76361893 9.22748886 -9.91403198 9.22793579 C-12.3868178 9.22654785 -14.85929838 9.21101211 -17.33203125 9.1953125 C-19.05124243 9.19158046 -20.77045573 9.18873439 -22.4896698 9.18673706 C-27.00570591 9.17911564 -31.52161255 9.15947998 -36.03759766 9.1373291 C-40.64939625 9.11683853 -45.26121584 9.10772848 -49.87304688 9.09765625 C-58.91542134 9.07623266 -67.95769989 9.04211473 -77 9 C-77 8.67 -77 8.34 -77 8 C-75.86153625 7.9845388 -75.86153625 7.9845388 -74.70007324 7.96876526 C-67.52101566 7.87048038 -60.34203742 7.76792422 -53.16310883 7.66066074 C-49.47302527 7.60567385 -45.78293352 7.55229494 -42.09277344 7.50268555 C-38.52655221 7.4546816 -34.9604181 7.40233009 -31.39430237 7.34705925 C-29.38266146 7.31698792 -27.3709561 7.29133156 -25.35925293 7.26576233 C-19.16021418 7.16610653 -13.12998224 6.94852699 -7 6 C-6.67 5.01 -6.34 4.02 -6 3 C-3.0625 1.25 -3.0625 1.25 0 0 Z " fill="#142345" transform="translate(98,109)"/>
<path d="M0 0 C6.27 0 12.54 0 19 0 C19 4.95 19 9.9 19 15 C12.73 15 6.46 15 0 15 C0.99 14.34 1.98 13.68 3 13 C3.33 12.01 3.66 11.02 4 10 C4.77085938 9.96261719 5.54171875 9.92523438 6.3359375 9.88671875 C7.84027344 9.78810547 7.84027344 9.78810547 9.375 9.6875 C10.37273438 9.62949219 11.37046875 9.57148437 12.3984375 9.51171875 C13.25695313 9.34285156 14.11546875 9.17398438 15 9 C16.9451 6.08235 17.45276317 4.37462715 18 1 C14.95865509 2.66924071 14.95865509 2.66924071 14 5 C12.39620659 5.05416188 10.79188594 5.09286638 9.1875 5.125 C8.29417969 5.14820313 7.40085937 5.17140625 6.48046875 5.1953125 C4 5 4 5 1 3 C1.33 2.67 1.66 2.34 2 2 C1.34 1.34 0.68 0.68 0 0 Z " fill="#21345C" transform="translate(29,34)"/>
<path d="M0 0 C-0.45038438 4.6676199 -2.03403677 6.39062041 -5.5625 9.375 C-6.45839844 10.14457031 -7.35429688 10.91414063 -8.27734375 11.70703125 C-9.62505859 12.84205078 -9.62505859 12.84205078 -11 14 C-12.54409755 15.35139418 -14.08604804 16.70524898 -15.625 18.0625 C-16.74934767 19.04241565 -17.87407755 20.02189418 -19 21 C-22.44661492 18.81434176 -25.71243771 16.52036655 -28.875 13.9375 C-29.47054687 13.45152344 -30.06609375 12.96554688 -30.6796875 12.46484375 C-32 11 -32 11 -32 8 C-28.56049636 8.61198376 -26.48435515 9.92058847 -23.75 12.0625 C-23.04359375 12.61035156 -22.3371875 13.15820312 -21.609375 13.72265625 C-21.07828125 14.14417969 -20.5471875 14.56570312 -20 15 C-14.37801827 11.09371841 -9.64954987 6.7657119 -4.98046875 1.7578125 C-3 0 -3 0 0 0 Z " fill="#314062" transform="translate(77,61)"/>
<path d="M0 0 C0 0.33 0 0.66 0 1 C-2.31 1 -4.62 1 -7 1 C-7 1.66 -7 2.32 -7 3 C-5.35 3 -3.7 3 -2 3 C-2 3.33 -2 3.66 -2 4 C-3.8253125 4.0928125 -3.8253125 4.0928125 -5.6875 4.1875 C-10.17235991 4.72027591 -12.11420068 6.50206143 -15 10 C-15.33 10.33 -15.66 10.66 -16 11 C-16.23192865 12.51469448 -16.41215238 14.03754562 -16.5625 15.5625 C-16.68818359 16.80193359 -16.68818359 16.80193359 -16.81640625 18.06640625 C-16.87699219 18.70449219 -16.93757813 19.34257813 -17 20 C-18.32 20.33 -19.64 20.66 -21 21 C-21.62954729 14.95634597 -21.11569468 10.74429422 -17.54296875 5.73046875 C-12.50234498 0.07731348 -7.31598321 -0.59722312 0 0 Z " fill="#324C68" transform="translate(95,78)"/>
<path d="M0 0 C0.33 0 0.66 0 1 0 C1 5.28 1 10.56 1 16 C0.34 16 -0.32 16 -1 16 C-1.02685095 13.52076199 -1.04676547 11.0418116 -1.0625 8.5625 C-1.07506836 7.50192383 -1.07506836 7.50192383 -1.08789062 6.41992188 C-1.09653588 4.61306441 -1.05220011 2.80612397 -1 1 C-0.67 0.67 -0.34 0.34 0 0 Z M-2 16 C-1.67 17.32 -1.34 18.64 -1 20 C-7.6 20 -14.2 20 -21 20 C-21 19.01 -21 18.02 -21 17 C-14.73 16.67 -8.46 16.34 -2 16 Z " fill="#FBFCFE" transform="translate(50,34)"/>
<path d="M0 0 C0.66 0 1.32 0 2 0 C2.02578125 0.60328125 2.0515625 1.2065625 2.078125 1.828125 C2.37388587 7.06981501 2.37388587 7.06981501 5.0625 11.4375 C5.701875 11.953125 6.34125 12.46875 7 13 C7 13.66 7 14.32 7 15 C9.64 15 12.28 15 15 15 C15.12375 14.05125 15.2475 13.1025 15.375 12.125 C16 9 16 9 18 7 C18 9.31 18 11.62 18 14 C18.99 14.33 19.98 14.66 21 15 C16.54806278 17.96795815 12.22190854 17.63458039 7 17 C3.54341521 14.95426614 2.2214641 13.33219615 0 10 C-0.1953125 7.51953125 -0.1953125 7.51953125 -0.125 4.8125 C-0.10695313 3.91144531 -0.08890625 3.01039062 -0.0703125 2.08203125 C-0.04710938 1.39496094 -0.02390625 0.70789063 0 0 Z " fill="#57AA94" transform="translate(78,92)"/>
<path d="M0 0 C-0.99 4.62 -1.98 9.24 -3 14 C-4.32 13.67 -5.64 13.34 -7 13 C-6.5020163 9.26512223 -6.12508244 7.18762365 -4 4 C-5.1875 6 -5.1875 6 -7 8 C-9.6875 8.25 -9.6875 8.25 -12 8 C-10.95505436 4.74905801 -9.40864509 3.43126714 -6.5625 1.75 C-3 0 -3 0 0 0 Z " fill="#184C58" transform="translate(97,89)"/>
<path d="M0 0 C2.65696068 0.15182632 4.44234524 0.47324024 6.41015625 2.33203125 C10.1324926 6.7923235 11.3623435 9.20250404 11 15 C10.34 15.66 9.68 16.32 9 17 C8.87882812 16.39671875 8.75765625 15.7934375 8.6328125 15.171875 C8.46523437 14.37265625 8.29765625 13.5734375 8.125 12.75 C7.88136719 11.56664063 7.88136719 11.56664063 7.6328125 10.359375 C7.00106448 8.00396882 6.24959008 6.09190636 5 4 C4.34 3.67 3.68 3.34 3 3 C2.67 3.99 2.34 4.98 2 6 C-0.66083969 7.99396257 -3.61242325 10 -7 10 C-6.67 8.68 -6.34 7.36 -6 6 C-4.35 6 -2.7 6 -1 6 C-0.67 4.02 -0.34 2.04 0 0 Z " fill="#54A491" transform="translate(94,83)"/>
<path d="M0 0 C3 2 3 2 6 4 C6 4.66 6 5.32 6 6 C4.35 5.67 2.7 5.34 1 5 C1 13.25 1 21.5 1 30 C0.67 30 0.34 30 0 30 C0 24.72 0 19.44 0 14 C-0.66 14 -1.32 14 -2 14 C-3.37913361 10.16907332 -2.78648334 6.9324167 -2 3 C-1.34 2.01 -0.68 1.02 0 0 Z " fill="#20335C" transform="translate(23,20)"/>
<path d="M0 0 C0.56654297 0.6496875 0.56654297 0.6496875 1.14453125 1.3125 C4.75456924 4.9648101 7.35800287 6.46858069 12.5625 6.625 C17.53900111 6.36452198 20.26116273 5.23358899 24 2 C23.35953563 4.88208966 22.65269374 6.56717555 20.15625 8.22265625 C14.66129032 11 14.66129032 11 12 11 C12 10.34 12 9.68 12 9 C11.071875 9.061875 10.14375 9.12375 9.1875 9.1875 C6 9 6 9 4.375 7.6875 C3.92125 7.130625 3.4675 6.57375 3 6 C1.68036291 4.98199424 0.34990354 3.97751635 -1 3 C-0.67 2.01 -0.34 1.02 0 0 Z " fill="#1B475D" transform="translate(78,102)"/>
<path d="M0 0 C6.10642479 -0.78287497 10.00459579 1.89174849 15 5 C15 5.99 15 6.98 15 8 C15.66 8 16.32 8 17 8 C18.44207941 10.88415883 18.09394887 13.41721528 18.0625 16.625 C18.05347656 17.81351563 18.04445313 19.00203125 18.03515625 20.2265625 C18.02355469 21.14179687 18.01195313 22.05703125 18 23 C17.34 23 16.68 23 16 23 C16.06960937 22.02160156 16.06960937 22.02160156 16.140625 21.0234375 C16.38533134 15.09804837 16.07900338 11.64553163 12 7 C8.56463266 3.56463266 4.62377077 3.001817 0 2 C0 1.34 0 0.68 0 0 Z " fill="#18405A" transform="translate(88,79)"/>
<path d="M0 0 C2.69600373 0.9885347 3.80558649 1.65977636 5.25 4.1875 C6.14461507 7.54230653 6.13556977 10.54297098 6 14 C5.34 14 4.68 14 4 14 C4 13.01 4 12.02 4 11 C3.01 11.33 2.02 11.66 1 12 C0 9 0 9 0.5625 7 C0.706875 6.34 0.85125 5.68 1 5 C0.34 4.01 -0.32 3.02 -1 2 C-0.67 1.34 -0.34 0.68 0 0 Z " fill="#4BB683" transform="translate(97,86)"/>
<path d="M0 0 C3.63 0 7.26 0 11 0 C11 1.32 11 2.64 11 4 C7.37 4 3.74 4 0 4 C0 2.68 0 1.36 0 0 Z " fill="#EAF1F9" transform="translate(33,40)"/>
<path d="M0 0 C0.99 0.33 1.98 0.66 3 1 C3 1.99 3 2.98 3 4 C4.32 4.33 5.64 4.66 7 5 C7 5.66 7 6.32 7 7 C7.66 7.33 8.32 7.66 9 8 C9 8.66 9 9.32 9 10 C4.78087253 9.5205537 2.20336822 8.83374881 -1 6 C-0.67 4.02 -0.34 2.04 0 0 Z " fill="#4DB784" transform="translate(82,97)"/>
<path d="M0 0 C0.33 0.66 0.66 1.32 1 2 C1.99 2 2.98 2 4 2 C2.125 5.875 2.125 5.875 1 7 C-0.78071246 7.08726223 -2.5648314 7.10699041 -4.34765625 7.09765625 C-5.42724609 7.09443359 -6.50683594 7.09121094 -7.61914062 7.08789062 C-8.75544922 7.07951172 -9.89175781 7.07113281 -11.0625 7.0625 C-12.20267578 7.05798828 -13.34285156 7.05347656 -14.51757812 7.04882812 C-17.34510351 7.03699747 -20.1725264 7.0205141 -23 7 C-23 6.67 -23 6.34 -23 6 C-15.41 6 -7.82 6 0 6 C-0.33 4.68 -0.66 3.36 -1 2 C-0.67 1.34 -0.34 0.68 0 0 Z " fill="#414F6F" transform="translate(51,51)"/>
<path d="M0 0 C0.99 0.33 1.98 0.66 3 1 C1.625 3.5 1.625 3.5 0 6 C-0.66 6 -1.32 6 -2 6 C-2.66 10.62 -3.32 15.24 -4 20 C-4.33 20 -4.66 20 -5 20 C-5.33165262 13.20726311 -5.33098087 8.0213885 -2 2 C-1.34 1.34 -0.68 0.68 0 0 Z " fill="#1D2A49" transform="translate(9,8)"/>
<path d="M0 0 C0.99 0 1.98 0 3 0 C3 2.31 3 4.62 3 7 C2.01 6.67 1.02 6.34 0 6 C-1.72532263 5.77991948 -3.45534033 5.59496906 -5.1875 5.4375 C-6.08855469 5.35371094 -6.98960938 5.26992188 -7.91796875 5.18359375 C-8.94857422 5.09271484 -8.94857422 5.09271484 -10 5 C-10 4.67 -10 4.34 -10 4 C-5.545 3.505 -5.545 3.505 -1 3 C-0.67 2.01 -0.34 1.02 0 0 Z " fill="#3C4C73" transform="translate(44,35)"/>
<path d="M0 0 C1.5 1.0625 1.5 1.0625 3 3 C3.1875 6.6875 3.1875 6.6875 3 10 C1.68 10.33 0.36 10.66 -1 11 C-1.0270043 9.54176788 -1.04639787 8.08339325 -1.0625 6.625 C-1.07410156 5.81289062 -1.08570312 5.00078125 -1.09765625 4.1640625 C-1 2 -1 2 0 0 Z " fill="#36546D" transform="translate(75,88)"/>
<path d="M0 0 C3.65791137 3.36132396 6.21125115 6.329378 8 11 C7.6875 13.375 7.6875 13.375 7 15 C6.5875 13.96875 6.175 12.9375 5.75 11.875 C4.22831497 8.28557072 2.17936992 5.23147954 0 2 C0 1.34 0 0.68 0 0 Z " fill="#CCD4E0" transform="translate(87,44)"/>
<path d="M0 0 C0.33 0 0.66 0 1 0 C1 1.65 1 3.3 1 5 C1.99 5.33 2.98 5.66 4 6 C3.67 7.98 3.34 9.96 3 12 C1 11 1 11 0.375 9.375 C-0.12095645 6.2339425 -0.06103811 3.17398169 0 0 Z " fill="#1A2946" transform="translate(4,95)"/>
<path d="M0 0 C6.70909091 2.60909091 6.70909091 2.60909091 9 4 C9.33 4.99 9.66 5.98 10 7 C6.00118212 6.38479725 3.19641774 4.39731331 0 2 C0 1.34 0 0.68 0 0 Z " fill="#1C2A43" transform="translate(99,2)"/>
<path d="M0 0 C-0.375 2.4375 -0.375 2.4375 -1 5 C-1.99 5.495 -1.99 5.495 -3 6 C-3 5.34 -3 4.68 -3 4 C-3.99 3.67 -4.98 3.34 -6 3 C-3.375 0 -3.375 0 0 0 Z " fill="#4F5876" transform="translate(77,61)"/>
<path d="M0 0 C0.66 0.33 1.32 0.66 2 1 C-0.80804268 3.96404505 -3.18315774 6.44499019 -7 8 C-6.34 6.68 -5.68 5.36 -5 4 C-4.34 4 -3.68 4 -3 4 C-2.67 3.01 -2.34 2.02 -2 1 C-1.34 0.67 -0.68 0.34 0 0 Z " fill="#8D8D8D" transform="translate(232,44)"/>
<path d="M0 0 C1.98 0.495 1.98 0.495 4 1 C3.67 2.32 3.34 3.64 3 5 C1.68 4.67 0.36 4.34 -1 4 C-0.67 2.68 -0.34 1.36 0 0 Z " fill="#C5CFE0" transform="translate(75,19)"/>
<path d="M0 0 C2.6875 0.3125 2.6875 0.3125 5 1 C3.68 2.32 2.36 3.64 1 5 C-0.32 4.34 -1.64 3.68 -3 3 C-1.8125 1.4375 -1.8125 1.4375 0 0 Z " fill="#435374" transform="translate(62,72)"/>
<path d="M0 0 C0.99 0.33 1.98 0.66 3 1 C3 2.32 3 3.64 3 5 C1.68 5 0.36 5 -1 5 C-0.67 3.35 -0.34 1.7 0 0 Z " fill="#D4E1EC" transform="translate(85,25)"/>
<path d="M0 0 C1.98 0 3.96 0 6 0 C4.71034824 1.37562854 3.37310707 2.70766393 2 4 C1.34 4 0.68 4 0 4 C0 2.68 0 1.36 0 0 Z " fill="#212D4E" transform="translate(101,112)"/>
<path d="M0 0 C2.475 0.495 2.475 0.495 5 1 C5 1.66 5 2.32 5 3 C6.32 3.66 7.64 4.32 9 5 C4.68607774 4.5206753 2.83430453 3.2542015 0 0 Z " fill="#519A8F" transform="translate(80,104)"/>
<path d="M0 0 C0 0.33 0 0.66 0 1 C-0.78375 1.12375 -1.5675 1.2475 -2.375 1.375 C-5.14057822 1.79117993 -5.14057822 1.79117993 -7 4 C-7 3.34 -7 2.68 -7 2 C-8.65 2.33 -10.3 2.66 -12 3 C-11 1 -11 1 -9.375 0.375 C-6.2339425 -0.12095645 -3.17398169 -0.06103811 0 0 Z " fill="#A7A7A7" transform="translate(206,43)"/>
<path d="M0 0 C0.99 0.33 1.98 0.66 3 1 C2.67 2.65 2.34 4.3 2 6 C2.99 6 3.98 6 5 6 C5 6.66 5 7.32 5 8 C4.01 8.33 3.02 8.66 2 9 C-0.04698414 6.95301586 0.29954307 2.69588759 0 0 Z " fill="#314167" transform="translate(82,24)"/>
</svg>
